<?xml version="1.0" encoding="utf-8"?>
<!-- This is the cover image for carlosbaraza.com blog. Designed by Carlos Baraza. -->
<svg version="1.1" xmlns="http://www.w3.org/2000/svg" xmlns:xlink="http://www.w3.org/1999/xlink" x="0px" y="0px"
     id="bkg" viewBox="0 0 1000 750" preserveAspectRatio="xMidYMid slice">
  <defs>
    <!-- Define both gradients that will be use in the image -->
    <linearGradient id="grad1" x1="0%" y1="100%" x2="100%" y2="0%">
      <stop offset="0%" style="stop-color:rgb(92,142,236);stop-opacity:1" />
      <stop offset="100%" style="stop-color:rgb(94,201,216);stop-opacity:1" />
    </linearGradient>
    <linearGradient id="grad2" x1="100%" y1="0%" x2="0%" y2="100%">
      <stop offset="0%" style="stop-color:rgb(92,142,236);stop-opacity:1" />
      <stop offset="100%" style="stop-color:rgb(94,201,216);stop-opacity:1" />
    </linearGradient>

    <!-- Define dots pattern for the overlay layer -->
    <pattern id='dots' patternUnits='userSpaceOnUse' width='5' height='5' viewBox='0 0 5 5'>
        <rect width='5' height='5' fill='none'/>
        <rect width='1' height='1' fill='rgba(0,0,0,0.1)'/>
    </pattern>
  </defs>
  <!-- Polygon on the left with the gradient -->
  <polygon id="leftPolygon" points="0,0 575,0 375,750 0,750" fill="url(#grad1)" />

  <!-- Small effect to add dynamism and asymmetry to the design -->
  <polygon id="effect1" points="400,225 950,750 -125,750 250,374.7" fill="url(#grad2)" fill-opacity="0.7"
    transform="translate(-50,0)"/>

  <!-- Polygons on the center and right -->
  <polygon id="slashPolygon" points="574,0 1000,0 1000,750 374,750" fill="url(#grad2)" />
  <polygon id="rightPolygon" points="624,0 1000,0 1000,750 424,750" fill="url(#grad1)" />

  <!-- Pattern overlay polygon covering the entire page -->
  <polygon id="patternOverlay" points="0,0 1000,0 1000,750 0,750" fill="url(#dots)" />

  <!-- Less than character -->
  <path id="openTag" d="M400,225 L400,271 L296,374.7 L400,478.4 V525 L250,374.7 L400,225z"
    fill="url('#grad2')"
    transform="translate(-50,0)"/>

  <!-- Greater than character -->
  <path id="closeTag" d="M600,525 v-46.6 l104.3-103.7 L600,271 v-46 l150,149.7 L600,525z"
    fill="url('#grad1')"
    transform="translate(50,0)"/>
</svg>
