<?xml version="1.0" encoding="utf-8"?>
<!-- Generator: Adobe Illustrator 24.2.0, SVG Export Plug-In . SVG Version: 6.00 Build 0)  -->
<svg version="1.1" id="Layer_1" xmlns="http://www.w3.org/2000/svg" xmlns:xlink="http://www.w3.org/1999/xlink" x="0px" y="0px"
	 viewBox="0 0 1510.1 388.2" style="enable-background:new 0 0 1510.1 388.2;" xml:space="preserve">
<style type="text/css">
	.st0{fill:#FFFFFF;}
</style>
<g id="brain">
	<path class="st0" d="M800.4,146.3c0-64,33.3-79.3,75-116.9C896.7,10.2,930.5,0.2,958.1,0c7.5,1.3,14.3,4.2,20.4,8.8
		c5.9-3.6,12.1-6.2,18.7-7.8c13.7-0.4,25.2-1,38.5,2.3c30.9,7.7,39.8,25.6,61.7,43.9c21.3,17.8,43.6,22,54.9,52.5
		c13.5,36.3-5.8,58.6-4.9,92.2c0.4,17,12.8,28.9,10.5,48.1c-1.9,15.3-10,24.3-17.3,37.1c-20.4,36,1.7-9.5-12.1,25.4
		c-4.5,11.3-3.9,21.7-12.4,31.5c-11.6,13.3-26.8,11.1-39.4,19.3c-9.9,6.4-15.3,16.9-25.8,23.7c-30.9,20.3-43.1,2.2-71.4,0.4
		c-7.7-0.5-23.6,10.7-33.7,10.8c-12.8,0.2-28.2-4.2-39-11.4c-10.1-6.8-14.2-17.4-24.2-23.6c-11.1-7-24.4-5.2-35.4-15.1
		c-16.6-15-8.7-38.5-18.9-56.5c-10.8-19.1-30.4-36.2-27.1-59.9c1.7-12,10.2-21.2,10.3-32.9C811.5,176.6,802.8,158.9,800.4,146.3
		C800.4,139.2,801.7,152.9,800.4,146.3z M1129.2,207.8c-11.6,9.3-69,41.8-77.8,19.8c-8.5-21,53.6-23.7,67.6-39
		c20.6-22.5,26.7-61.9,15.2-90c-10-24.4-23.8-23.9-42.7-36.7c-12.8-8.6-14.9-16.8-26.4-28c-10.9-10.7-28.4-20.4-44.2-20.5
		c-28.9-0.3-26.2,10.2-27.3,36.8c-2,45.1-0.1,90.6-0.1,135.7c0,48.1-3.5,98.1,0,146.1c2.5,34.4,36.8,56.3,61.8,18.3
		c-18.3-17.1-49.4-48.2-30.9-57.6c19.9-10.1,30.1,34.3,45.9,39.4c40.6,12.9,43.6-48.8,53-64.4
		C1142.3,236.1,1143.2,222.6,1129.2,207.8z M829.5,177c12.9-6,100.8-21.1,85.7,9.4c-12.5,25.3-89.8-23.2-94.3,45.5
		c-1.8,27.3,18.2,25.6,28.7,44c8.2,14.3-2.5,31.4,6,45.3c10.3,16.9,37.4,14,51.5,24.4c13.6,10,18.5,35.2,43.7,27.6
		c33.6-10.1,15.9-121.8,15.9-153.5s0-63.3,0-95c0-23.7,8.9-72.6-1.8-94.4c-23.5-47.9-73.1,11.3-94.3,27.2
		c-15.8,11.9-31.7,20.5-43.6,40C805.2,133.6,827.5,167.2,829.5,177z"/>
	<path class="st0" d="M1068.7,154c-24.8,0.1-44.8-13.8-56.5-34.9c-12.9-23.2-10.9-49.1,14.8-24.3c7,6.7,5.7,20.4,14.7,27.9
		c9.1,7.6,19.3,3.3,27.2,8C1087.1,141.4,1100.6,152.2,1068.7,154C1042.1,154.1,1071.6,153.8,1068.7,154z"/>
	<path class="st0" d="M916.4,298c0,11.5-1.3,17.3-11.4,14.6c-14.5-3.8-9.5-17.9-14.8-28.4c-7.2-14-33.9-28.7-40.3-39.6
		c-7.7-13.1,14-9.8,27.3-3.3C901.1,253.1,914.6,278.1,916.4,298z"/>
	<path class="st0" d="M867,123.6c-22.2,1.3-18.2-9.3-8.8-18.8c6.2-6.2,20.3-3.4,28.4-9.5c7-5.2,5.4-18,14.4-21.4
		c21-7.9,23.7,4.2,17.1,19.9C909.6,113.8,886.7,121.5,867,123.6C860.3,124,870.4,123.3,867,123.6z"/>
</g>
<g id="lt">
	<path class="st0" d="M166.6,287.6v17.7L0.8,209.5l165.8-95.9v17.7L31,209.5L166.6,287.6z"/>
</g>
<g id="gt">
	<path class="st0" d="M1200,352.2l90.3-287.4h16L1216,352.2H1200z"/>
	<path class="st0" d="M1344.3,305.7V288l135.6-78.2l-135.6-78.2v-17.7l165.8,95.9L1344.3,305.7z"/>
</g>
<g id="dev">
	<path class="st0" d="M219.6,225.8c0-10.7,1.9-20.7,5.7-29.9s9-17.1,15.6-23.6c6.6-6.6,14.3-11.8,23.3-15.6s18.7-5.7,29.2-5.7
		c7.4,0,14.2,1,20.4,2.9c6.2,1.9,11.8,4.4,16.7,7.5c4.9,3.1,9.1,6.7,12.5,10.7c3.5,4.1,6.1,8.1,8.1,12.2V23h19.7v274.4H351v-14.7
		c0-2.6,0.1-5.2,0.4-7.7c0.2-2.5,0.4-5,0.4-7.3c-4.8,8.8-12.2,16.5-22.2,22.9s-22.2,9.7-36.5,9.7c-11,0-21-2-29.9-5.9
		c-9-3.9-16.7-9.3-23.1-15.9c-6.4-6.7-11.5-14.6-15-23.6C221.4,245.7,219.6,236,219.6,225.8z M239.3,225.4c0,7.9,1.4,15.2,4.3,21.8
		c2.9,6.7,6.8,12.5,11.8,17.5c5,5,10.9,9,17.7,11.8c6.8,2.9,14.1,4.3,22,4.3s15.2-1.4,22-4.3s12.7-6.8,17.7-11.8s9-10.9,11.8-17.5
		c2.9-6.7,4.3-14,4.3-21.8c0-7.6-1.4-14.8-4.3-21.5s-6.8-12.5-11.8-17.6s-10.9-9-17.7-11.8c-6.8-2.9-14.1-4.3-22-4.3
		s-15.2,1.4-22,4.3c-6.8,2.9-12.7,6.7-17.7,11.6c-5,4.9-9,10.7-11.8,17.4C240.7,210.3,239.3,217.5,239.3,225.4z"/>
	<path class="st0" d="M538.4,280.2c-6.9,6.2-15,11.1-24.4,14.7c-9.3,3.6-19,5.4-29,5.4c-10.5,0-20.4-2-29.5-5.9
		c-9.2-3.9-17.2-9.3-24-15.9c-6.8-6.7-12.2-14.6-16.1-23.6c-3.9-9.1-5.9-18.7-5.9-29s2-20,5.9-29.2s9.3-17.2,16.1-24
		c6.8-6.8,14.7-12.2,23.8-16.1c9.1-3.9,18.7-5.9,29-5.9c15.8,0,29.4,4.8,41,14.3c11.6,9.6,20.1,21.7,25.6,36.5
		c-8.1,3.1-17.1,6.6-27,10.6c-9.9,3.9-20.1,8-30.4,12.2c-10.4,4.2-20.7,8.4-31,12.5c-10.3,4.2-19.8,8.1-28.7,11.6
		c4.3,9.8,10.9,17.7,19.9,23.6c9,6,19.2,9,30.6,9c7.6,0,14.9-1.3,21.8-3.9s12.8-6.2,17.6-10.7L538.4,280.2z M526.2,196.4
		c-4.1-8.1-9.8-14.5-17.2-19.2c-7.4-4.7-15.6-7-24.7-7c-7.6,0-14.8,1.5-21.5,4.5s-12.5,7-17.6,12c-5,5-9,10.8-11.8,17.4
		c-2.9,6.6-4.3,13.6-4.3,21c0,3.8,0.4,7.2,1.1,10c7.4-3.1,15.3-6.3,23.6-9.7c8.4-3.3,16.7-6.7,25.1-10.2s16.6-6.8,24.7-10
		C511.7,202,519.3,199,526.2,196.4z"/>
	<path class="st0" d="M633.3,306c-6.7-12.7-13-25.3-19-38c-6-12.7-11.8-25.3-17.6-38c-5.7-12.7-11.5-25.3-17.4-38s-12-25.3-18.4-38
		H582c7.2,14.3,13.3,26.9,18.3,37.8c5,10.9,9.4,20.7,13.1,29.4c3.7,8.7,7.1,16.8,10.2,24.4c3.1,7.5,6.3,15.1,9.7,22.7
		c3.3-7.6,6.5-15.2,9.5-22.7s6.3-15.6,10-24.4c3.7-8.7,8.1-18.5,13.1-29.4s11.1-23.5,18.3-37.8h21.1c-12.9,25.6-24.9,50.9-36,75.9
		C658.2,255.1,646.2,280.5,633.3,306z"/>
</g>
</svg>
