<svg xmlns="http://www.w3.org/2000/svg" viewBox="0 0 357.68 388.21">
  <defs>
    <style>
      .cls-1 {
        fill: #fff;
      }
    </style>
  </defs>
  <g id="Layer_2" data-name="Layer 2">
    <g id="logo-white">
      <g id="logo-white-2" data-name="logo-white">
        <g id="logo-outline-white">
          <g id="brain-outline-white">
            <path class="cls-1" d="M346.9,191.9c-.9-33.6,18.4-55.9,4.9-92.2C340.5,69.2,318.2,65,296.9,47.2,275,28.9,266.1,11,235.2,3.3,221.9,0,210.4.6,196.7,1A65.09,65.09,0,0,0,178,8.8,46.57,46.57,0,0,0,157.6,0C130,.1,102.4,4.7,81.1,23.9,39.61,61.31.4,82.09,0,145.32c0,.27,0,.6,0,1s.16.78.24,1.18c0,.09,0,.18.06.25C3,160.13,11.1,177.06,11,188.8S2.4,209.7.7,221.7c-3.3,23.7,6.7,37,17.5,56.1,10.2,18,11.9,45.3,28.5,60.3,11,9.9,24.3,8.1,35.4,15.1,10,6.2,14.1,16.8,24.2,23.6,10.8,7.2,26.2,11.6,39,11.4,10.1-.1,26-11.3,33.7-10.8,28.3,1.8,40.5,19.9,71.4-.4,10.5-6.8,15.9-17.3,25.8-23.7,12.6-8.2,27.8-6,39.4-19.3,8.5-9.8,7.9-20.2,12.4-31.5,2.85-7.21,4.17-11,4.65-12.76,1.35-2.1,3.67-6,7.45-12.64,7.3-12.8,15.4-21.8,17.3-37.1C359.7,220.8,347.3,208.9,346.9,191.9ZM149.13,358.25c-23.1,6.9-27.6-16.1-40-25.3-12.9-9.5-37.6-6.8-47.1-22.3-7.8-12.7,2-28.4-5.5-41.5-9.7-16.9-27.9-15.3-26.3-40.3,4.1-62.9,71.9-13.2,86.3-41.6,19.23-38.06-81.15-17.06-81.17-17.2-4.48-22.88-9.65-47.33,3.07-68.6,10.6-18,26.1-16.9,40.5-27.8,19.3-14.5,61.7-73,83.2-29.2,9.8,19.9,1.6,64.7,1.6,86.4v87C163.73,246.75,179.83,349.05,149.13,358.25Zm159.8-167c-12.8,14-64.5,15.2-61.9,35.8,4.4,34.4,74.6-6.9,77.8-9.5,12.6,33.4-19.3,39.2-28.8,62.3-6.2,15.5,5.1,54.8-32.1,43-14.5-4.7-18.6-56.8-42-36.1-18.5,16.4,6.7,49.5,19,60.2-34.5,23.9-44.9,7.2-47.2-24.3-3.2-44,0-89.8,0-133.9,0-41.3-1.7-83,.1-124.3,1.1-24.3-1.4-33.9,25.1-33.7,14.4.1,30.5,9,40.5,18.8,10.5,10.3,12.5,17.8,24.2,25.7,17.4,11.7,30,11.2,39.2,33.6C333.43,134.55,327.73,170.65,308.93,191.25Z"/>
            <path class="cls-1" d="M299.56,162.74a55.83,55.83,0,0,1-10.23,1.41c-26.6.1-44.8-13.8-56.5-34.9-12.9-23.2-5.9-56,19.8-31.2,7,6.7,5.7,20.4,14.7,27.9s19.3,3.3,27.2,8C310.42,143.2,318.84,158,299.56,162.74Z"/>
            <path class="cls-1" d="M134,296.15a9.9,9.9,0,0,1-.09,2h0c-.91,10.25-8.81,16.1-18.3,13.56-14.5-3.8-9.5-17.9-14.8-28.4-7.2-14-37.9-27.2-40.3-39.6-4.5-23.3,20-18.8,33.3-12.3,22,10.85,35.57,34.87,39.41,58.49C133.19,288.15,133.36,288.66,134,296.15Z"/>
            <path class="cls-1" d="M143.73,103.85c-8.45,20-31.15,27.71-50.77,29.86l-.13,0-.2,0c-2.63.16-2.67.13-1.95.06-20,.06-15.86-18.55-6.65-27.76,6.2-6.2,20.3-3.4,28.4-9.5,7-5.2,5.4-18,14.4-21.4C147.83,67.25,150.33,88.25,143.73,103.85Z"/>
          </g>
        </g>
      </g>
    </g>
  </g>
</svg>
