<?xml version="1.0" standalone="no"?>
<!DOCTYPE svg PUBLIC "-//W3C//DTD SVG 20010904//EN"
 "http://www.w3.org/TR/2001/REC-SVG-20010904/DTD/svg10.dtd">
<svg version="1.0" xmlns="http://www.w3.org/2000/svg"
 width="2223.000000pt" height="2223.000000pt" viewBox="0 0 2223.000000 2223.000000"
 preserveAspectRatio="xMidYMid meet">
<metadata>
Created by potrace 1.14, written by Peter Selinger 2001-2017
</metadata>
<g transform="translate(0.000000,2223.000000) scale(0.100000,-0.100000)"
fill="#000000" stroke="none">
<path d="M9457 22224 c-1 -1 -65 -5 -142 -8 -77 -4 -167 -8 -200 -11 -33 -2
-94 -7 -135 -10 -74 -6 -138 -12 -215 -20 -22 -2 -67 -7 -100 -10 -33 -3 -71
-8 -85 -10 -14 -3 -47 -7 -75 -10 -27 -4 -75 -10 -105 -15 -30 -5 -73 -12 -95
-15 -63 -10 -393 -73 -470 -90 -38 -9 -78 -18 -88 -20 -194 -41 -602 -175
-887 -290 -84 -35 -431 -204 -495 -242 -28 -16 -84 -49 -125 -74 -192 -112
-446 -294 -615 -438 -55 -47 -102 -88 -105 -91 -7 -8 -337 -301 -406 -360 -16
-14 -65 -56 -109 -94 -134 -115 -519 -442 -879 -746 -162 -137 -160 -135 -237
-202 -30 -25 -65 -56 -79 -67 -94 -80 -393 -342 -405 -355 -5 -6 -30 -29 -55
-50 -325 -282 -867 -836 -1097 -1121 -26 -33 -54 -66 -61 -74 -31 -33 -276
-366 -341 -464 -70 -104 -189 -296 -204 -327 -4 -8 -26 -46 -48 -85 -56 -100
-149 -282 -204 -405 -26 -58 -55 -124 -66 -147 -10 -24 -19 -46 -19 -50 0 -5
-6 -19 -13 -34 -8 -14 -22 -47 -31 -75 -39 -109 -115 -334 -127 -375 -7 -24
-14 -48 -15 -54 -20 -67 -78 -286 -89 -340 -21 -94 -62 -302 -69 -345 -43
-279 -59 -419 -82 -725 -2 -33 -7 -166 -10 -296 l-6 -235 31 -130 c55 -223 98
-361 291 -944 144 -431 235 -755 270 -957 5 -35 12 -75 15 -90 20 -109 26
-353 12 -475 -23 -192 -117 -477 -268 -804 -155 -337 -252 -600 -284 -765 -2
-11 -6 -28 -9 -37 -5 -19 -12 -61 -21 -137 -3 -27 -8 -64 -10 -82 -25 -183
-25 -650 0 -784 2 -9 6 -40 10 -70 3 -30 8 -61 10 -69 2 -8 7 -31 10 -50 3
-19 11 -55 16 -80 6 -25 13 -55 15 -67 9 -48 74 -262 104 -343 17 -47 32 -89
34 -95 14 -47 121 -290 128 -293 5 -2 8 -9 8 -15 0 -27 183 -372 345 -652 32
-55 69 -120 83 -145 14 -25 28 -49 32 -55 4 -5 51 -86 105 -180 54 -93 107
-186 118 -205 38 -67 145 -285 185 -380 103 -242 172 -436 363 -1020 210 -642
307 -894 466 -1208 193 -382 416 -677 677 -894 196 -164 471 -301 796 -398
109 -33 138 -41 305 -85 446 -118 643 -193 857 -325 235 -146 401 -309 764
-745 239 -288 426 -470 619 -603 133 -92 360 -217 510 -282 28 -12 64 -28 80
-35 194 -87 563 -205 780 -249 44 -9 91 -19 105 -22 85 -18 234 -40 330 -49
36 -4 76 -9 90 -11 49 -9 416 -12 465 -4 96 16 120 21 180 36 156 39 375 124
757 293 536 237 688 283 898 276 69 -2 136 -6 150 -9 14 -2 52 -7 85 -11 33
-4 80 -10 105 -15 25 -5 63 -11 85 -14 23 -4 52 -9 65 -11 57 -12 127 -27 150
-31 121 -24 355 -89 730 -204 129 -39 242 -73 250 -75 8 -2 42 -12 75 -21 33
-9 67 -18 75 -20 8 -2 50 -12 92 -23 71 -18 196 -44 273 -55 164 -24 215 -28
370 -28 129 0 169 3 295 18 69 9 193 34 270 54 254 67 572 210 857 384 335
205 492 341 893 776 347 376 493 512 700 651 94 63 287 166 395 211 61 25 293
108 303 108 5 0 35 9 68 19 32 10 93 29 134 41 380 111 601 190 759 270 225
113 370 217 541 390 110 111 137 144 218 265 113 167 203 360 272 582 26 81
126 458 135 505 25 127 108 383 211 648 101 262 143 375 191 520 24 72 56 140
102 215 93 151 104 169 152 255 23 41 50 86 59 100 9 14 31 50 47 80 118 213
174 307 405 677 279 449 401 669 482 873 10 25 22 53 27 63 12 22 65 180 91
267 21 72 64 276 73 342 3 24 10 75 15 113 9 72 7 442 -4 505 -3 19 -8 53 -11
75 -13 84 -46 234 -75 340 -17 61 -32 117 -34 125 -8 32 -109 307 -192 521
-148 386 -217 601 -249 784 -4 22 -9 50 -11 63 -11 62 -13 78 -21 140 -15 129
-7 661 12 782 3 14 7 51 9 81 3 31 7 69 10 85 2 16 7 54 11 84 13 108 24 179
40 260 3 14 9 50 15 80 16 94 16 93 65 330 3 16 63 275 95 415 11 44 33 139
50 210 17 72 33 141 36 155 3 14 9 41 14 60 5 19 11 46 14 60 2 14 13 66 25
115 11 50 22 101 24 115 20 109 28 148 32 170 3 14 8 40 11 59 3 18 8 43 10
55 2 11 6 39 9 61 5 39 15 105 20 135 2 8 6 44 10 80 3 36 8 81 10 100 15 137
19 216 19 450 1 226 -6 402 -19 468 -1 9 -6 44 -9 77 -4 33 -11 83 -16 110 -5
28 -12 64 -15 80 -38 235 -166 681 -249 870 -8 17 -31 71 -51 120 -88 209
-240 481 -369 663 -294 412 -655 740 -1236 1123 -171 113 -213 140 -431 277
-58 37 -113 72 -121 77 -8 6 -35 23 -59 39 -24 16 -89 59 -144 95 -254 166
-627 444 -750 557 -11 11 -49 44 -85 74 -36 30 -70 60 -76 65 -6 6 -52 48
-103 94 -143 131 -169 156 -611 590 -540 531 -709 684 -965 878 -436 328 -933
570 -1493 727 -95 27 -320 80 -382 91 -19 3 -84 14 -145 25 -60 10 -135 21
-166 25 -31 3 -65 7 -76 9 -10 2 -63 7 -118 11 -55 4 -102 9 -105 10 -9 5
-411 18 -555 18 -137 -1 -657 -13 -760 -18 -74 -4 -379 -90 -480 -135 -11 -5
-59 -25 -108 -44 -116 -48 -277 -126 -414 -203 l-113 -63 -68 49 c-143 101
-332 206 -527 291 -96 42 -290 101 -440 135 -112 25 -130 26 -343 23 -123 -2
-224 -4 -225 -4z m-311 -1637 c12 -3 37 -8 56 -11 41 -6 167 -49 218 -74 241
-117 448 -324 629 -630 144 -243 229 -472 287 -767 4 -22 8 -42 9 -45 1 -3 5
-30 9 -60 5 -30 10 -64 12 -75 11 -59 32 -250 40 -355 15 -225 18 -320 18
-625 0 -301 -6 -515 -19 -745 -2 -30 -6 -109 -9 -175 -4 -66 -8 -138 -11 -160
-2 -22 -7 -85 -10 -140 -4 -55 -8 -120 -10 -145 -3 -25 -7 -81 -10 -125 -3
-44 -7 -100 -10 -125 -2 -25 -7 -76 -10 -115 -13 -171 -15 -203 -20 -255 -3
-30 -8 -84 -10 -120 -2 -35 -7 -89 -10 -120 -2 -30 -7 -89 -10 -130 -7 -106
-14 -204 -20 -282 -17 -221 -19 -602 -19 -3058 -1 -2360 3 -2887 19 -3060 1
-19 6 -87 10 -150 3 -63 8 -135 10 -160 2 -25 6 -88 10 -140 3 -52 8 -113 10
-135 3 -22 7 -80 10 -130 3 -49 7 -106 9 -125 3 -19 7 -80 11 -135 3 -55 8
-116 10 -135 1 -19 6 -80 9 -135 4 -55 9 -116 11 -135 2 -19 7 -80 10 -135 4
-55 8 -118 10 -140 2 -22 7 -80 10 -130 7 -114 14 -219 20 -315 11 -170 14
-230 20 -335 3 -60 8 -141 10 -180 4 -66 12 -240 20 -420 23 -553 23 -1544 0
-1795 -2 -25 -7 -92 -10 -150 -3 -58 -8 -125 -10 -150 -3 -25 -7 -72 -10 -105
-2 -33 -7 -80 -9 -105 -3 -25 -8 -70 -11 -100 -6 -56 -13 -114 -20 -160 -2
-14 -6 -45 -10 -70 -11 -74 -14 -93 -20 -140 -10 -71 -73 -380 -90 -435 -15
-51 -37 -132 -41 -150 -7 -37 -93 -275 -126 -350 -150 -341 -356 -579 -595
-686 -62 -28 -215 -73 -288 -85 -214 -36 -371 -35 -532 1 -13 3 -25 5 -28 5
-3 0 -35 12 -72 26 -305 114 -495 282 -841 744 -73 96 -135 180 -139 185 -5 6
-21 28 -37 50 -17 22 -33 42 -36 45 -3 3 -21 25 -40 50 -53 70 -158 187 -235
262 -197 191 -448 323 -843 442 -84 25 -163 48 -175 50 -37 8 -487 125 -562
147 -307 87 -422 128 -625 222 -441 204 -726 552 -794 967 -3 19 -8 46 -11 60
-6 32 -18 219 -18 285 1 55 13 299 18 355 3 31 8 102 21 285 9 135 4 383 -11
480 -3 17 -7 48 -11 70 -29 203 -148 457 -302 647 -150 185 -304 328 -592 548
-46 36 -96 75 -110 86 -14 12 -65 55 -115 97 -423 354 -571 733 -531 1364 4
62 9 120 10 130 2 10 7 49 11 86 3 37 8 78 11 90 2 12 6 39 10 62 3 22 16 92
30 156 133 634 439 1045 924 1242 76 31 202 72 255 83 48 11 186 35 249 44
203 30 622 32 937 5 24 -2 80 -6 124 -9 44 -4 98 -8 120 -11 22 -2 69 -7 105
-10 36 -3 88 -8 115 -10 104 -10 142 -14 220 -20 44 -3 94 -8 110 -10 144 -18
606 -25 747 -12 522 50 813 225 983 591 78 168 117 315 118 441 0 144 -29 240
-108 350 -163 228 -530 377 -1090 440 -190 22 -377 30 -690 29 -341 0 -622
-12 -917 -39 -32 -3 -86 -8 -120 -11 -35 -3 -76 -7 -93 -9 -16 -2 -59 -6 -95
-10 -94 -9 -298 -33 -350 -40 -14 -2 -50 -7 -80 -10 -30 -3 -95 -12 -145 -20
-49 -7 -112 -16 -140 -20 -27 -3 -104 -14 -170 -25 -66 -10 -138 -21 -160 -25
-23 -3 -50 -7 -60 -9 -11 -2 -40 -7 -65 -11 -25 -4 -54 -9 -65 -11 -33 -6
-305 -55 -373 -66 -34 -6 -64 -9 -66 -7 -2 2 -7 20 -10 39 -3 19 -21 114 -40
210 -19 96 -37 191 -40 211 -3 20 -8 42 -10 50 -3 8 -7 30 -10 49 -7 42 -13
77 -26 145 -5 28 -12 64 -14 80 -3 17 -14 89 -26 160 -11 72 -23 148 -26 170
-3 22 -7 51 -9 65 -6 40 -20 151 -30 228 -2 20 -7 66 -10 102 -4 36 -8 81 -10
100 -25 231 -25 798 0 952 2 13 6 50 10 83 3 33 15 112 26 175 12 63 23 126
25 140 9 50 64 248 98 354 92 283 255 599 431 834 141 190 381 412 558 518 34
20 69 43 77 49 8 7 71 42 140 78 118 62 230 113 590 273 303 134 473 223 660
347 86 58 280 204 300 226 3 3 41 38 85 76 43 39 120 108 169 155 81 77 152
145 521 505 342 333 543 523 711 672 33 28 70 62 84 74 99 87 329 274 448 363
352 265 661 436 982 546 77 27 153 43 255 56 28 4 51 8 53 9 6 5 266 -2 288
-8z m4469 -130 c11 -3 47 -9 80 -12 162 -18 421 -85 640 -168 176 -66 468
-204 547 -259 14 -10 29 -18 33 -18 19 0 400 -256 480 -322 11 -9 63 -52 115
-94 123 -100 388 -367 515 -519 55 -66 172 -212 260 -325 186 -240 176 -227
285 -349 164 -184 338 -336 535 -468 108 -72 284 -183 291 -183 2 0 21 -10 42
-23 61 -39 221 -124 517 -277 451 -233 680 -390 883 -606 406 -430 707 -1169
787 -1929 4 -33 8 -73 11 -90 16 -116 23 -583 10 -755 -12 -165 -22 -270 -31
-330 -2 -14 -6 -47 -10 -75 -11 -95 -40 -253 -80 -436 -19 -87 -93 -352 -130
-464 -60 -179 -119 -326 -201 -502 -19 -40 -34 -74 -34 -76 0 -6 -139 -259
-180 -327 -145 -245 -382 -544 -522 -660 -251 -207 -620 -365 -1448 -619 -359
-110 -484 -149 -675 -214 -203 -69 -341 -119 -390 -141 -16 -8 -58 -26 -92
-40 -503 -210 -782 -464 -838 -761 -7 -38 -7 -172 0 -205 3 -14 9 -48 14 -77
62 -334 280 -562 616 -644 120 -29 173 -34 370 -34 220 1 324 11 525 52 41 8
86 17 100 19 131 23 432 112 739 219 82 28 430 165 506 199 295 132 436 198
645 303 234 117 424 216 500 261 19 11 58 33 85 48 75 40 297 174 324 196 21
16 26 17 33 4 8 -14 75 -214 83 -246 58 -242 76 -366 77 -535 1 -248 -42 -444
-147 -670 -60 -130 -178 -313 -277 -430 -107 -127 -184 -209 -371 -394 -319
-315 -399 -395 -472 -472 -80 -85 -173 -192 -194 -223 -8 -12 -18 -23 -21 -26
-13 -10 -117 -157 -168 -238 -119 -186 -209 -406 -236 -572 -3 -19 -7 -44 -10
-55 -2 -11 -7 -45 -11 -75 -3 -30 -8 -66 -10 -80 -10 -72 -22 -203 -30 -335
-7 -111 -12 -179 -20 -275 -3 -36 -7 -99 -10 -140 -3 -41 -7 -86 -10 -100 -2
-14 -7 -59 -11 -100 -3 -41 -8 -78 -10 -81 -1 -3 -6 -30 -9 -60 -3 -30 -8 -61
-10 -69 -2 -8 -7 -28 -9 -45 -72 -414 -251 -708 -501 -824 -100 -47 -142 -59
-270 -80 -59 -10 -311 -7 -370 4 -45 8 -96 17 -130 22 -37 6 -116 25 -215 52
-212 58 -284 102 -415 256 -55 65 -185 255 -185 270 0 4 -9 19 -19 33 -34 48
-211 408 -321 652 -74 163 -270 541 -335 645 -170 273 -337 435 -506 495 -89
31 -219 35 -318 9 -238 -61 -543 -312 -676 -553 -137 -251 -169 -587 -90 -946
9 -41 18 -84 20 -94 11 -51 93 -283 135 -381 52 -121 128 -275 185 -375 21
-36 49 -85 62 -109 26 -44 96 -158 110 -176 5 -6 35 -51 68 -100 181 -274 417
-558 676 -817 l158 -156 -112 -75 c-646 -430 -1185 -621 -1568 -558 -424 70
-705 409 -869 1046 -17 66 -32 129 -34 140 -44 231 -69 386 -81 510 -3 33 -8
76 -10 95 -10 81 -18 169 -30 375 -3 49 -8 113 -10 140 -4 49 -14 225 -20 362
-2 38 -6 140 -9 228 -4 88 -8 196 -11 240 -25 454 -26 2193 0 3225 6 240 16
689 20 855 2 83 6 283 10 445 33 1362 35 2529 10 4210 -15 1004 -18 1418 -19
2380 0 953 6 1505 19 1885 2 61 7 191 10 290 6 179 10 296 20 515 2 63 7 194
10 290 8 246 21 502 30 560 2 14 7 52 11 85 3 33 8 69 10 80 2 11 6 31 9 45
10 53 14 68 25 111 13 47 17 58 46 129 44 107 113 199 208 277 97 80 346 171
521 189 33 4 62 8 65 9 3 2 55 7 115 11 61 3 111 8 113 9 6 5 459 -2 477 -8z"/>
<path d="M8505 18023 c-106 -12 -295 -61 -396 -104 -190 -80 -318 -248 -438
-576 -16 -43 -41 -112 -56 -153 -165 -449 -358 -604 -890 -709 -137 -27 -181
-35 -262 -45 -15 -2 -55 -9 -88 -15 -33 -6 -78 -13 -100 -17 -116 -17 -304
-70 -394 -111 -120 -54 -197 -119 -310 -257 -72 -91 -111 -148 -169 -256 -37
-68 -125 -280 -117 -280 2 0 -1 -15 -6 -32 -38 -124 -45 -339 -14 -444 43
-148 137 -272 254 -335 17 -9 36 -21 43 -26 17 -13 159 -59 225 -72 138 -28
383 -31 509 -7 12 2 45 7 75 11 121 15 422 71 542 101 9 2 25 6 35 8 694 168
1265 462 1659 854 140 139 244 272 364 467 80 128 182 369 224 525 1 3 7 23
13 45 23 76 61 281 68 370 35 409 -42 709 -226 893 -81 80 -204 142 -314 158
-50 7 -190 11 -231 7z"/>
<path d="M4894 9265 c-328 -49 -535 -240 -579 -535 -11 -71 -13 -219 -4 -290
5 -36 11 -87 14 -113 3 -27 10 -59 15 -73 5 -13 8 -24 5 -24 -6 0 21 -63 56
-132 86 -173 315 -408 654 -674 50 -39 261 -199 470 -356 627 -470 852 -671
1027 -919 122 -173 205 -403 242 -674 5 -29 13 -86 21 -134 2 -13 7 -45 11
-70 3 -25 10 -62 14 -81 5 -19 11 -53 15 -75 8 -55 32 -149 57 -220 106 -308
334 -483 698 -539 382 -58 710 131 858 494 74 181 92 377 57 645 -2 17 -7 57
-10 90 -3 33 -10 71 -15 85 -8 20 -48 201 -76 340 -9 44 -63 242 -95 345 -90
289 -242 652 -379 903 -72 133 -245 414 -292 477 -5 6 -47 62 -94 125 -48 63
-121 155 -163 205 -86 101 -318 337 -400 405 -29 25 -59 50 -65 56 -40 37
-229 178 -324 241 -231 152 -468 269 -721 357 -131 45 -331 100 -408 111 -21
4 -47 9 -57 12 -11 3 -35 7 -54 9 -20 2 -51 6 -71 10 -65 11 -325 11 -407 -1z"/>
<path d="M14407 17125 c-1 -2 -24 -5 -52 -8 -161 -17 -315 -140 -396 -317
-144 -312 -159 -747 -44 -1235 84 -357 235 -687 490 -1075 240 -363 537 -695
840 -934 33 -26 69 -55 80 -63 10 -9 84 -59 164 -112 148 -97 368 -216 501
-271 41 -17 84 -35 95 -40 183 -79 551 -174 801 -205 27 -4 60 -8 74 -11 156
-25 598 -25 750 0 14 3 48 7 75 11 28 3 68 10 90 15 22 5 56 12 75 15 94 16
252 66 345 109 158 73 264 165 323 282 28 56 34 85 38 182 10 295 -272 665
-751 987 -173 116 -315 185 -435 211 -105 22 -240 41 -345 49 -33 3 -81 7
-107 10 -27 3 -72 8 -100 11 -92 10 -153 20 -254 44 -297 70 -546 243 -706
491 -85 132 -184 367 -258 609 -17 58 -35 114 -40 125 -4 11 -22 63 -40 115
-78 226 -169 383 -300 511 -244 239 -523 419 -727 469 -67 16 -178 31 -186 25z"/>
</g>
</svg>
